<svg width="42" height="43" viewBox="0 0 42 43" fill="none" xmlns="http://www.w3.org/2000/svg">
<circle cx="21.2402" cy="21.5" r="20.5" fill="black"/>
<path d="M34.836 12.364C34.956 12.796 35.016 13.396 35.016 14.164C35.016 14.932 35.016 15.628 35.016 16.252C35.016 16.444 35.004 16.624 34.98 16.792C34.98 16.96 34.98 17.104 34.98 17.224C35.004 17.488 35.004 18.052 34.98 18.916C34.98 19.756 34.98 20.656 34.98 21.616V26.044C34.98 26.14 34.98 26.248 34.98 26.368C34.98 26.464 34.98 26.572 34.98 26.692C35.004 26.86 35.016 27.04 35.016 27.232C35.016 27.424 35.016 27.616 35.016 27.808C35.016 28.048 35.004 28.3 34.98 28.564C34.98 28.804 34.944 29.08 34.872 29.392C34.824 29.632 34.776 29.776 34.728 29.824C34.704 29.848 34.656 29.896 34.584 29.968C34.536 30.016 34.464 30.064 34.368 30.112C34.344 30.112 34.308 30.136 34.26 30.184C34.26 30.184 34.248 30.184 34.224 30.184C34.224 30.184 34.224 30.196 34.224 30.22C34.176 30.244 34.116 30.28 34.044 30.328C33.996 30.352 33.96 30.376 33.936 30.4C33.816 30.4 33.648 30.364 33.432 30.292C33.432 30.268 33.408 30.256 33.36 30.256C33.288 30.232 33.216 30.208 33.144 30.184C33.072 30.16 33.024 30.136 33 30.112C33.024 30.28 33.036 30.46 33.036 30.652C33.06 30.82 33.072 31 33.072 31.192V31.372L33.18 31.12H34.62L34.836 32.308L34.548 33.712L33.216 34H31.92L32.1 33.496C32.052 33.544 31.956 33.616 31.812 33.712C31.812 33.712 31.752 33.748 31.632 33.82C31.584 33.844 31.536 33.88 31.488 33.928C31.464 33.952 31.428 33.976 31.38 34C31.236 34.048 31.128 34.072 31.056 34.072C30.984 34.072 30.948 34.084 30.948 34.108C30.636 34.156 30.324 34.18 30.012 34.18C29.724 34.204 29.436 34.216 29.148 34.216C28.572 34.216 28.104 34.168 27.744 34.072C27.696 34.072 27.66 34.06 27.636 34.036C27.564 34.036 27.504 34.024 27.456 34C27.408 34 27.36 33.988 27.312 33.964C27.264 33.94 27.18 33.868 27.06 33.748C27.012 33.748 26.988 33.724 26.988 33.676C26.964 33.676 26.94 33.676 26.916 33.676C26.916 33.652 26.904 33.64 26.88 33.64C26.832 33.592 26.784 33.556 26.736 33.532C26.712 33.484 26.688 33.448 26.664 33.424C26.568 33.28 26.508 33.16 26.484 33.064C26.46 33.016 26.448 32.968 26.448 32.92C26.304 32.584 26.22 32.224 26.196 31.84C26.172 31.456 26.16 31.096 26.16 30.76V30.328C26.16 29.632 26.196 28.948 26.268 28.276C26.268 28.084 26.268 27.892 26.268 27.7C26.292 27.484 26.316 27.28 26.34 27.088C26.364 26.536 26.352 25.876 26.304 25.108C26.28 24.316 26.232 23.62 26.16 23.02L26.268 22.48C26.268 22.48 26.268 22.468 26.268 22.444C26.268 22.324 26.292 22.24 26.34 22.192C26.412 22.12 26.532 22.06 26.7 22.012C26.556 21.964 26.448 21.916 26.376 21.868C26.376 21.868 26.352 21.844 26.304 21.796C26.16 21.724 26.064 21.664 26.016 21.616C25.968 21.568 25.92 21.52 25.872 21.472C25.848 21.4 25.812 21.316 25.764 21.22V21.58C25.788 21.628 25.8 21.688 25.8 21.76C25.8 21.832 25.8 21.892 25.8 21.94C25.824 22.132 25.836 22.336 25.836 22.552C25.836 22.768 25.812 22.984 25.764 23.2C25.692 23.44 25.608 23.68 25.512 23.92C25.416 24.16 25.308 24.4 25.188 24.64C25.14 24.76 25.08 24.892 25.008 25.036C24.936 25.156 24.876 25.276 24.828 25.396C24.684 25.732 24.528 26.104 24.36 26.512C24.192 26.92 23.94 27.268 23.604 27.556C23.076 28.012 22.2 28.204 20.976 28.132C20.736 28.132 20.508 28.096 20.292 28.024C20.22 28.024 20.172 28.012 20.148 27.988C19.884 27.94 19.728 27.892 19.68 27.844C19.656 27.796 19.608 27.748 19.536 27.7C19.488 27.628 19.428 27.532 19.356 27.412C19.356 27.412 19.344 27.4 19.32 27.376C19.296 27.328 19.26 27.268 19.212 27.196C19.164 27.124 19.14 27.064 19.14 27.016C19.14 26.968 19.164 26.92 19.212 26.872C19.26 26.8 19.296 26.74 19.32 26.692C19.32 26.692 19.356 26.644 19.428 26.548C19.548 26.38 19.632 26.284 19.68 26.26C19.776 26.212 19.884 26.188 20.004 26.188C20.028 26.164 20.052 26.152 20.076 26.152L20.796 26.044C20.844 26.02 20.88 26.008 20.904 26.008C20.952 26.008 20.988 25.996 21.012 25.972C20.988 25.876 20.964 25.828 20.94 25.828C20.916 25.804 20.904 25.792 20.904 25.792L19.896 25.468C19.872 25.468 19.848 25.468 19.824 25.468C19.824 25.444 19.812 25.432 19.788 25.432C19.716 25.408 19.644 25.384 19.572 25.36C19.524 25.336 19.476 25.312 19.428 25.288L19.248 24.928C19.248 24.88 19.236 24.82 19.212 24.748C19.14 24.628 19.104 24.532 19.104 24.46C19.104 24.364 19.128 24.268 19.176 24.172C19.2 24.148 19.212 24.136 19.212 24.136C19.212 24.112 19.212 24.1 19.212 24.1C19.284 23.956 19.344 23.824 19.392 23.704C19.464 23.56 19.548 23.428 19.644 23.308C19.86 23.02 20.124 22.744 20.436 22.48H20.22L19.5 21.04H18.06L18.672 19.852L18.312 19.816H16.908L17.16 19.348H16.44L16.692 18.88H16.44L16.656 18.448L14.1 18.412H13.632L13.956 17.764L14.172 18.196L14.316 17.98H14.064L14.316 17.512H14.064L14.316 17.044L14.1 17.008H12.696L12.84 16.72H10.14L10.248 16.504H9.816L10.032 16.972H9.816L9.996 17.332L10.212 16.864L10.464 17.332L10.68 16.864L10.896 17.296L11.148 16.828L11.4 17.296L11.616 16.828L11.868 17.296L12.084 16.828L12.336 17.296L12.552 16.828L12.876 17.476H12.192L12.408 17.944H12.192L12.408 18.412H12.192L12.336 18.7L12.552 18.232L12.804 18.7L13.02 18.232L13.272 18.7L13.488 18.232L13.812 18.88H13.596L13.74 19.168L13.956 18.7L14.28 19.348H14.064L14.28 19.816H14.064L14.172 20.068L14.424 19.6L14.676 20.068L14.892 19.6L15.144 20.068L15.36 19.6L15.72 20.32H15.504L15.72 20.788H15.036L15.252 21.256H15.036L15.252 21.724H14.568L14.784 22.192H14.568L14.784 22.66H14.064L14.28 23.092H14.064L14.28 23.56H13.596L13.812 24.028H13.596L13.74 24.316L13.956 23.848L14.172 24.28L14.424 23.812L14.676 24.28L14.892 23.812L15.252 24.496L15.36 24.28L15.72 25H15.504L15.72 25.468L14.1 25.432H12.66L12.876 25.9H12.66L12.804 26.188L13.02 25.72L13.344 26.368H13.128L13.344 26.836H13.128L13.272 27.124L13.488 26.656L13.74 27.124L13.884 26.836H13.632L13.956 26.188L14.172 26.62L14.316 26.404H14.064L14.424 25.684L14.784 26.404H14.568L14.784 26.836L14.892 26.62L15.252 27.34H14.568L14.784 27.808H14.568L14.784 28.276L14.1 28.24H12.696L12.948 27.772H12.228L12.48 27.304H12.228L12.48 26.836H10.824L11.148 26.188L11.4 26.656L11.544 26.368H11.292L11.544 25.9H11.292L11.544 25.432L10.86 25.396H8.412L8.628 25.864H8.052L8.304 25.396H8.052L8.304 24.928H8.052L8.304 24.46H8.052L8.304 23.992H8.052L8.304 23.524H8.052L8.304 23.056H8.052L8.304 22.588H8.052L8.304 22.12H8.052L8.304 21.652H8.052L8.304 21.184H8.052L8.304 20.716H8.052L8.304 20.248H8.052L8.304 19.78H8.052L8.304 19.312H8.052L8.304 18.844H8.052L8.304 18.376H8.052L8.304 17.908H8.052L8.304 17.44H8.052L8.304 16.972H8.052L8.304 16.504H8.052L8.304 16.036H8.052L8.304 15.568H8.052L8.304 15.1H8.052L8.304 14.632H8.052L8.304 14.164H8.052L8.304 13.696H8.052L8.304 13.228H8.052L8.34 12.652L8.592 13.12L8.808 12.652L9.06 13.12L9.276 12.652L9.528 13.12L9.708 12.76H9.456L9.708 12.292L9.42 12.4L7.98 12.58V9.772L8.16 9.736L8.34 9.376L8.484 9.7L8.664 9.664L8.772 9.484H8.52L8.808 8.908L9.06 9.376L9.276 8.908L9.528 9.376L9.744 8.908L9.996 9.376L10.212 8.908L10.464 9.376L10.68 8.908L10.896 9.34L11.148 8.872L11.4 9.34L11.616 8.872L11.868 9.34L12.084 8.872L12.336 9.34L12.552 8.872L12.804 9.34L13.02 8.872L13.272 9.34L13.488 8.872L13.74 9.34L13.956 8.872L14.172 9.304L14.424 8.836L14.784 9.52L14.892 9.304L15.144 9.772L15.36 9.34L15.684 9.988H15.468L15.612 10.276L15.828 9.808L16.152 10.456H15.936L16.08 10.744L16.296 10.276L16.62 10.924H16.404L16.62 11.392H16.404L16.548 11.68L16.764 11.212L17.088 11.86H16.872L17.016 12.148L17.232 11.68L17.556 12.328H17.34L17.556 12.796H17.34L17.448 13.048L17.7 12.58L18.06 13.3H17.844L18.06 13.732L18.168 13.516L18.528 14.2L18.636 13.984L18.996 14.704H18.78L18.996 15.136L19.104 14.92L19.464 15.64H19.248L19.464 16.072L19.572 15.856L19.932 16.54L20.04 16.324L20.4 17.044H20.184L20.4 17.512H20.184L20.4 17.944L20.508 17.728L20.868 18.448H19.248L19.464 18.88L19.572 18.664L19.932 19.384H19.716L19.824 19.6H20.328L20.508 19.204L20.796 19.6L20.94 19.312H20.688L20.94 18.844H20.688L20.976 18.268L21.228 18.736L21.444 18.268L21.696 18.736L21.912 18.268L22.128 18.664L22.38 18.16L22.092 17.26L23.136 15.532L23.1 16.72L23.82 15.28L24.18 15.964C24.204 15.772 24.276 15.544 24.396 15.28H23.82L23.856 14.38L24.54 13.84L24.792 14.38C24.84 14.284 24.888 14.2 24.936 14.128C24.984 14.032 25.02 13.948 25.044 13.876C25.044 13.804 25.068 13.72 25.116 13.624C25.212 13.432 25.296 13.24 25.368 13.048C25.464 12.856 25.584 12.664 25.728 12.472C25.728 12.376 25.788 12.328 25.908 12.328C25.956 12.28 25.992 12.244 26.016 12.22C26.064 12.196 26.1 12.172 26.124 12.148C26.028 12.148 25.98 12.1 25.98 12.004C25.98 11.908 26.028 11.86 26.124 11.86C26.22 11.86 26.268 11.92 26.268 12.04C26.316 11.992 26.352 11.956 26.376 11.932C26.424 11.908 26.46 11.884 26.484 11.86L26.736 11.644C26.688 11.644 26.664 11.608 26.664 11.536C26.664 11.44 26.712 11.392 26.808 11.392C26.88 11.392 26.928 11.428 26.952 11.5C27.072 11.38 27.228 11.272 27.42 11.176C27.396 11.152 27.384 11.116 27.384 11.068C27.384 10.972 27.432 10.924 27.528 10.924C27.6 10.924 27.648 10.96 27.672 11.032C27.864 10.936 28.056 10.876 28.248 10.852C28.32 10.804 28.38 10.78 28.428 10.78C28.5 10.78 28.548 10.78 28.572 10.78C28.716 10.78 28.872 10.816 29.04 10.888C29.088 10.912 29.148 10.924 29.22 10.924C29.22 10.948 29.244 10.96 29.292 10.96C29.316 10.936 29.352 10.924 29.4 10.924C29.496 10.924 29.544 10.984 29.544 11.104C29.568 11.128 29.58 11.152 29.58 11.176C29.58 11.176 29.592 11.188 29.616 11.212C29.64 11.212 29.688 11.26 29.76 11.356C29.808 11.452 29.844 11.524 29.868 11.572C29.916 11.62 29.952 11.68 29.976 11.752C30.048 11.848 30.096 12.04 30.12 12.328C30.192 12.352 30.228 12.4 30.228 12.472C30.228 12.52 30.216 12.544 30.192 12.544C30.216 12.568 30.24 12.604 30.264 12.652C30.312 12.676 30.384 12.748 30.48 12.868C30.48 12.868 30.48 12.88 30.48 12.904C30.504 12.928 30.54 12.964 30.588 13.012C30.612 13.012 30.624 13.012 30.624 13.012C30.648 13.012 30.672 13.012 30.696 13.012C30.672 12.988 30.66 12.964 30.66 12.94C30.66 12.844 30.708 12.796 30.804 12.796C30.9 12.796 30.948 12.856 30.948 12.976C30.996 12.952 31.056 12.94 31.128 12.94C31.128 12.844 31.2 12.796 31.344 12.796C31.416 12.748 31.488 12.7 31.56 12.652C31.656 12.58 31.74 12.52 31.812 12.472C31.812 12.376 31.86 12.328 31.956 12.328C32.004 12.328 32.04 12.34 32.064 12.364C32.136 12.316 32.208 12.268 32.28 12.22C32.376 12.172 32.472 12.136 32.568 12.112C32.544 12.088 32.532 12.052 32.532 12.004C32.532 11.908 32.58 11.86 32.676 11.86C32.772 11.86 32.82 11.908 32.82 12.004C32.868 11.98 32.916 11.956 32.964 11.932C33.012 11.908 33.06 11.884 33.108 11.86C33.132 11.86 33.144 11.86 33.144 11.86C33.168 11.836 33.192 11.824 33.216 11.824C33.288 11.776 33.36 11.752 33.432 11.752C33.504 11.728 33.564 11.704 33.612 11.68C33.636 11.656 33.672 11.644 33.72 11.644C33.72 11.62 33.708 11.608 33.684 11.608C33.684 11.584 33.684 11.56 33.684 11.536C33.684 11.44 33.732 11.392 33.828 11.392C33.924 11.392 33.972 11.452 33.972 11.572C33.996 11.548 34.044 11.536 34.116 11.536C34.14 11.56 34.176 11.584 34.224 11.608C34.296 11.632 34.344 11.668 34.368 11.716C34.368 11.74 34.392 11.776 34.44 11.824C34.512 11.872 34.584 11.944 34.656 12.04C34.752 12.112 34.812 12.22 34.836 12.364ZM9.708 9.484L9.384 9.592L9.528 9.844L9.708 9.484ZM10.176 9.484H9.816L9.996 9.844L10.176 9.484ZM10.644 9.484H10.284L10.464 9.844L10.644 9.484ZM10.896 9.808L11.076 9.52L10.752 9.484L10.896 9.808ZM11.544 9.52H11.256L11.4 9.808L11.544 9.52ZM12.012 9.52H11.724L11.868 9.808L12.012 9.52ZM12.48 9.52H12.192L12.336 9.808L12.48 9.52ZM12.948 9.52H12.66L12.804 9.808L12.948 9.52ZM13.416 9.52H13.128L13.272 9.808L13.416 9.52ZM13.884 9.52H13.596L13.74 9.808L13.884 9.52ZM14.172 9.772L14.316 9.556H14.064L14.172 9.772ZM27.744 9.808C27.648 9.808 27.6 9.76 27.6 9.664C27.6 9.568 27.648 9.52 27.744 9.52C27.84 9.52 27.888 9.568 27.888 9.664C27.888 9.76 27.84 9.808 27.744 9.808ZM28.212 9.808C28.116 9.808 28.068 9.76 28.068 9.664C28.068 9.568 28.116 9.52 28.212 9.52C28.308 9.52 28.356 9.568 28.356 9.664C28.356 9.76 28.308 9.808 28.212 9.808ZM28.68 9.808C28.584 9.808 28.536 9.76 28.536 9.664C28.536 9.568 28.584 9.52 28.68 9.52C28.776 9.52 28.824 9.568 28.824 9.664C28.824 9.76 28.776 9.808 28.68 9.808ZM29.148 9.808C29.052 9.808 29.004 9.76 29.004 9.664C29.004 9.568 29.052 9.52 29.148 9.52C29.244 9.52 29.292 9.568 29.292 9.664C29.292 9.76 29.244 9.808 29.148 9.808ZM29.616 9.808C29.52 9.808 29.472 9.76 29.472 9.664C29.472 9.568 29.52 9.52 29.616 9.52C29.712 9.52 29.76 9.568 29.76 9.664C29.76 9.76 29.712 9.808 29.616 9.808ZM30.084 9.808C29.988 9.808 29.94 9.76 29.94 9.664C29.94 9.568 29.988 9.52 30.084 9.52C30.18 9.52 30.228 9.568 30.228 9.664C30.228 9.76 30.18 9.808 30.084 9.808ZM30.552 9.808C30.456 9.808 30.408 9.76 30.408 9.664C30.408 9.568 30.456 9.52 30.552 9.52C30.648 9.52 30.696 9.568 30.696 9.664C30.696 9.76 30.648 9.808 30.552 9.808ZM31.02 9.808C30.924 9.808 30.876 9.76 30.876 9.664C30.876 9.568 30.924 9.52 31.02 9.52C31.116 9.52 31.164 9.568 31.164 9.664C31.164 9.76 31.116 9.808 31.02 9.808ZM31.488 9.808C31.392 9.808 31.344 9.76 31.344 9.664C31.344 9.568 31.392 9.52 31.488 9.52C31.584 9.52 31.632 9.568 31.632 9.664C31.632 9.76 31.584 9.808 31.488 9.808ZM31.956 9.808C31.86 9.808 31.812 9.76 31.812 9.664C31.812 9.568 31.86 9.52 31.956 9.52C32.052 9.52 32.1 9.568 32.1 9.664C32.1 9.76 32.052 9.808 31.956 9.808ZM32.424 9.808C32.328 9.808 32.28 9.76 32.28 9.664C32.28 9.568 32.328 9.52 32.424 9.52C32.52 9.52 32.568 9.568 32.568 9.664C32.568 9.76 32.52 9.808 32.424 9.808ZM32.892 9.808C32.796 9.808 32.748 9.76 32.748 9.664C32.748 9.568 32.796 9.52 32.892 9.52C32.988 9.52 33.036 9.568 33.036 9.664C33.036 9.76 32.988 9.808 32.892 9.808ZM33.36 9.808C33.264 9.808 33.216 9.76 33.216 9.664C33.216 9.568 33.264 9.52 33.36 9.52C33.456 9.52 33.504 9.568 33.504 9.664C33.504 9.76 33.456 9.808 33.36 9.808ZM33.828 9.808C33.732 9.808 33.684 9.76 33.684 9.664C33.684 9.568 33.732 9.52 33.828 9.52C33.924 9.52 33.972 9.568 33.972 9.664C33.972 9.76 33.924 9.808 33.828 9.808ZM9.204 9.952L8.7 10.96L8.808 10.78L9.06 11.248L9.24 10.888H8.988L9.24 10.42H8.988L9.204 9.952ZM9.348 9.952L9.528 10.312L9.708 9.952H9.348ZM9.816 9.952L9.996 10.312L10.176 9.952H9.816ZM10.284 9.952L10.464 10.312L10.644 9.952H10.284ZM10.896 10.276L11.076 9.988L10.752 9.952L10.896 10.276ZM11.256 9.988L11.4 10.276L11.544 9.988H11.256ZM11.724 9.988L11.868 10.276L12.012 9.988H11.724ZM12.336 10.276L12.48 9.988H12.192L12.336 10.276ZM12.66 9.988L12.804 10.276L12.948 9.988H12.66ZM13.128 9.988L13.272 10.276L13.416 9.988H13.128ZM13.596 9.988L13.74 10.276L13.884 9.988H13.596ZM14.172 10.24L14.316 10.024H14.064L14.172 10.24ZM15.252 10.024H14.568L14.784 10.492H14.568L14.676 10.708L14.892 10.276L15.144 10.744L15.288 10.456H15.036L15.252 10.024ZM27.06 10.276C26.964 10.276 26.916 10.228 26.916 10.132C26.916 10.036 26.964 9.988 27.06 9.988C27.156 9.988 27.204 10.036 27.204 10.132C27.204 10.228 27.156 10.276 27.06 10.276ZM27.528 10.276C27.432 10.276 27.384 10.228 27.384 10.132C27.384 10.036 27.432 9.988 27.528 9.988C27.624 9.988 27.672 10.036 27.672 10.132C27.672 10.228 27.624 10.276 27.528 10.276ZM27.996 10.276C27.9 10.276 27.852 10.228 27.852 10.132C27.852 10.036 27.9 9.988 27.996 9.988C28.092 9.988 28.14 10.036 28.14 10.132C28.14 10.228 28.092 10.276 27.996 10.276ZM28.464 10.276C28.368 10.276 28.32 10.228 28.32 10.132C28.32 10.036 28.368 9.988 28.464 9.988C28.56 9.988 28.608 10.036 28.608 10.132C28.608 10.228 28.56 10.276 28.464 10.276ZM28.932 10.276C28.836 10.276 28.788 10.228 28.788 10.132C28.788 10.036 28.836 9.988 28.932 9.988C29.028 9.988 29.076 10.036 29.076 10.132C29.076 10.228 29.028 10.276 28.932 10.276ZM29.4 10.276C29.304 10.276 29.256 10.228 29.256 10.132C29.256 10.036 29.304 9.988 29.4 9.988C29.496 9.988 29.544 10.036 29.544 10.132C29.544 10.228 29.496 10.276 29.4 10.276ZM29.868 10.276C29.772 10.276 29.724 10.228 29.724 10.132C29.724 10.036 29.772 9.988 29.868 9.988C29.964 9.988 30.012 10.036 30.012 10.132C30.012 10.228 29.964 10.276 29.868 10.276ZM30.336 10.276C30.24 10.276 30.192 10.228 30.192 10.132C30.192 10.036 30.24 9.988 30.336 9.988C30.432 9.988 30.48 10.036 30.48 10.132C30.48 10.228 30.432 10.276 30.336 10.276ZM30.804 10.276C30.708 10.276 30.66 10.228 30.66 10.132C30.66 10.036 30.708 9.988 30.804 9.988C30.9 9.988 30.948 10.036 30.948 10.132C30.948 10.228 30.9 10.276 30.804 10.276ZM31.272 10.276C31.176 10.276 31.128 10.228 31.128 10.132C31.128 10.036 31.176 9.988 31.272 9.988C31.368 9.988 31.416 10.036 31.416 10.132C31.416 10.228 31.368 10.276 31.272 10.276ZM31.74 10.276C31.644 10.276 31.596 10.228 31.596 10.132C31.596 10.036 31.644 9.988 31.74 9.988C31.836 9.988 31.884 10.036 31.884 10.132C31.884 10.228 31.836 10.276 31.74 10.276ZM32.208 10.276C32.112 10.276 32.064 10.228 32.064 10.132C32.064 10.036 32.112 9.988 32.208 9.988C32.304 9.988 32.352 10.036 32.352 10.132C32.352 10.228 32.304 10.276 32.208 10.276ZM32.676 10.276C32.58 10.276 32.532 10.228 32.532 10.132C32.532 10.036 32.58 9.988 32.676 9.988C32.772 9.988 32.82 10.036 32.82 10.132C32.82 10.228 32.772 10.276 32.676 10.276ZM33.144 10.276C33.048 10.276 33 10.228 33 10.132C33 10.036 33.048 9.988 33.144 9.988C33.24 9.988 33.288 10.036 33.288 10.132C33.288 10.228 33.24 10.276 33.144 10.276ZM33.612 10.276C33.516 10.276 33.468 10.228 33.468 10.132C33.468 10.036 33.516 9.988 33.612 9.988C33.708 9.988 33.756 10.036 33.756 10.132C33.756 10.228 33.708 10.276 33.612 10.276ZM34.08 10.276C33.984 10.276 33.936 10.228 33.936 10.132C33.936 10.036 33.984 9.988 34.08 9.988C34.176 9.988 34.224 10.036 34.224 10.132C34.224 10.228 34.176 10.276 34.08 10.276ZM9.348 10.42L9.528 10.78L9.708 10.42H9.348ZM9.816 10.42L9.996 10.78L10.176 10.42H9.816ZM10.284 10.42L10.464 10.78L10.644 10.42H10.284ZM10.896 10.744L11.076 10.456L10.752 10.42L10.896 10.744ZM11.256 10.456L11.4 10.744L11.544 10.456H11.256ZM12.012 10.456H11.724L11.868 10.744L12.012 10.456ZM12.192 10.456L12.336 10.744L12.48 10.456H12.192ZM12.66 10.456L12.804 10.744L12.948 10.456H12.66ZM13.128 10.456L13.272 10.744L13.416 10.456H13.128ZM13.596 10.456L13.74 10.744L13.884 10.456H13.596ZM14.064 10.492L14.172 10.708L14.316 10.492H14.064ZM15.756 10.456H15.468L15.612 10.744L15.756 10.456ZM26.808 10.744C26.712 10.744 26.664 10.696 26.664 10.6C26.664 10.504 26.712 10.456 26.808 10.456C26.904 10.456 26.952 10.504 26.952 10.6C26.952 10.696 26.904 10.744 26.808 10.744ZM27.132 10.6C27.132 10.504 27.18 10.456 27.276 10.456C27.372 10.456 27.42 10.504 27.42 10.6C27.42 10.696 27.372 10.744 27.276 10.744C27.18 10.744 27.132 10.696 27.132 10.6ZM27.744 10.456C27.84 10.456 27.888 10.504 27.888 10.6C27.888 10.696 27.84 10.744 27.744 10.744C27.648 10.744 27.6 10.696 27.6 10.6C27.6 10.504 27.648 10.456 27.744 10.456ZM28.212 10.456C28.308 10.456 28.356 10.504 28.356 10.6C28.356 10.696 28.308 10.744 28.212 10.744C28.116 10.744 28.068 10.696 28.068 10.6C28.068 10.504 28.116 10.456 28.212 10.456ZM28.68 10.456C28.776 10.456 28.824 10.504 28.824 10.6C28.824 10.696 28.776 10.744 28.68 10.744C28.584 10.744 28.536 10.696 28.536 10.6C28.536 10.504 28.584 10.456 28.68 10.456ZM29.148 10.456C29.244 10.456 29.292 10.504 29.292 10.6C29.292 10.696 29.244 10.744 29.148 10.744C29.052 10.744 29.004 10.696 29.004 10.6C29.004 10.504 29.052 10.456 29.148 10.456ZM29.616 10.456C29.712 10.456 29.76 10.504 29.76 10.6C29.76 10.696 29.712 10.744 29.616 10.744C29.52 10.744 29.472 10.696 29.472 10.6C29.472 10.504 29.52 10.456 29.616 10.456ZM30.084 10.456C30.18 10.456 30.228 10.504 30.228 10.6C30.228 10.696 30.18 10.744 30.084 10.744C29.988 10.744 29.94 10.696 29.94 10.6C29.94 10.504 29.988 10.456 30.084 10.456ZM30.552 10.456C30.648 10.456 30.696 10.504 30.696 10.6C30.696 10.696 30.648 10.744 30.552 10.744C30.456 10.744 30.408 10.696 30.408 10.6C30.408 10.504 30.456 10.456 30.552 10.456ZM31.02 10.456C31.116 10.456 31.164 10.504 31.164 10.6C31.164 10.696 31.116 10.744 31.02 10.744C30.924 10.744 30.876 10.696 30.876 10.6C30.876 10.504 30.924 10.456 31.02 10.456ZM31.488 10.456C31.584 10.456 31.632 10.504 31.632 10.6C31.632 10.696 31.584 10.744 31.488 10.744C31.392 10.744 31.344 10.696 31.344 10.6C31.344 10.504 31.392 10.456 31.488 10.456ZM31.956 10.456C32.052 10.456 32.1 10.504 32.1 10.6C32.1 10.696 32.052 10.744 31.956 10.744C31.86 10.744 31.812 10.696 31.812 10.6C31.812 10.504 31.86 10.456 31.956 10.456ZM32.424 10.744C32.328 10.744 32.28 10.696 32.28 10.6C32.28 10.504 32.328 10.456 32.424 10.456C32.52 10.456 32.568 10.504 32.568 10.6C32.568 10.696 32.52 10.744 32.424 10.744ZM32.892 10.744C32.796 10.744 32.748 10.696 32.748 10.6C32.748 10.504 32.796 10.456 32.892 10.456C32.988 10.456 33.036 10.504 33.036 10.6C33.036 10.696 32.988 10.744 32.892 10.744ZM33.36 10.744C33.264 10.744 33.216 10.696 33.216 10.6C33.216 10.504 33.264 10.456 33.36 10.456C33.456 10.456 33.504 10.504 33.504 10.6C33.504 10.696 33.456 10.744 33.36 10.744ZM33.972 10.6C33.972 10.696 33.924 10.744 33.828 10.744C33.732 10.744 33.684 10.696 33.684 10.6C33.684 10.504 33.732 10.456 33.828 10.456C33.924 10.456 33.972 10.504 33.972 10.6ZM34.152 10.6C34.152 10.504 34.2 10.456 34.296 10.456C34.392 10.456 34.44 10.504 34.44 10.6C34.44 10.696 34.392 10.744 34.296 10.744C34.2 10.744 34.152 10.696 34.152 10.6ZM9.348 10.888L9.528 11.248L9.708 10.888H9.348ZM9.816 10.888L9.996 11.248L10.176 10.888H9.816ZM10.284 10.888L10.464 11.248L10.644 10.888H10.284ZM10.752 10.888L10.896 11.212L11.076 10.924L10.752 10.888ZM11.256 10.924L11.4 11.212L11.544 10.924H11.256ZM11.724 10.924L11.868 11.212L12.012 10.924H11.724ZM12.192 10.924L12.336 11.212L12.48 10.924H12.192ZM12.804 11.212L12.948 10.924H12.66L12.804 11.212ZM13.128 10.924L13.272 11.212L13.416 10.924H13.128ZM13.596 10.924L13.74 11.212L13.884 10.924H13.596ZM14.784 10.96H14.064L14.28 11.392H14.064L14.172 11.644L14.424 11.176L14.676 11.644L14.784 11.392H14.568L14.784 10.96ZM15 10.924L15.144 11.212L15.288 10.924H15ZM15.468 10.924L15.612 11.212L15.756 10.924H15.468ZM16.224 10.924H15.936L16.08 11.212L16.224 10.924ZM26.124 11.212C26.028 11.212 25.98 11.164 25.98 11.068C25.98 10.972 26.028 10.924 26.124 10.924C26.22 10.924 26.268 10.972 26.268 11.068C26.268 11.164 26.22 11.212 26.124 11.212ZM26.592 11.212C26.496 11.212 26.448 11.164 26.448 11.068C26.448 10.972 26.496 10.924 26.592 10.924C26.688 10.924 26.736 10.972 26.736 11.068C26.736 11.164 26.688 11.212 26.592 11.212ZM27.06 10.924C27.156 10.924 27.204 10.972 27.204 11.068C27.204 11.164 27.156 11.212 27.06 11.212C26.964 11.212 26.916 11.164 26.916 11.068C26.916 10.972 26.964 10.924 27.06 10.924ZM29.868 11.212C29.772 11.212 29.724 11.164 29.724 11.068C29.724 10.972 29.772 10.924 29.868 10.924C29.964 10.924 30.012 10.972 30.012 11.068C30.012 11.164 29.964 11.212 29.868 11.212ZM30.192 11.068C30.192 10.972 30.24 10.924 30.336 10.924C30.432 10.924 30.48 10.972 30.48 11.068C30.48 11.164 30.432 11.212 30.336 11.212C30.24 11.212 30.192 11.164 30.192 11.068ZM30.66 11.068C30.66 10.972 30.708 10.924 30.804 10.924C30.9 10.924 30.948 10.972 30.948 11.068C30.948 11.164 30.9 11.212 30.804 11.212C30.708 11.212 30.66 11.164 30.66 11.068ZM31.128 11.068C31.128 10.972 31.176 10.924 31.272 10.924C31.368 10.924 31.416 10.972 31.416 11.068C31.416 11.164 31.368 11.212 31.272 11.212C31.176 11.212 31.128 11.164 31.128 11.068ZM31.596 11.068C31.596 10.972 31.644 10.924 31.74 10.924C31.836 10.924 31.884 10.972 31.884 11.068C31.884 11.164 31.836 11.212 31.74 11.212C31.644 11.212 31.596 11.164 31.596 11.068ZM32.064 11.068C32.064 10.972 32.112 10.924 32.208 10.924C32.304 10.924 32.352 10.972 32.352 11.068C32.352 11.164 32.304 11.212 32.208 11.212C32.112 11.212 32.064 11.164 32.064 11.068ZM32.676 11.212C32.58 11.212 32.532 11.164 32.532 11.068C32.532 10.972 32.58 10.924 32.676 10.924C32.772 10.924 32.82 10.972 32.82 11.068C32.82 11.164 32.772 11.212 32.676 11.212ZM33.144 11.212C33.048 11.212 33 11.164 33 11.068C33 10.972 33.048 10.924 33.144 10.924C33.24 10.924 33.288 10.972 33.288 11.068C33.288 11.164 33.24 11.212 33.144 11.212ZM33.612 11.212C33.516 11.212 33.468 11.164 33.468 11.068C33.468 10.972 33.516 10.924 33.612 10.924C33.708 10.924 33.756 10.972 33.756 11.068C33.756 11.164 33.708 11.212 33.612 11.212ZM34.584 16.252C34.584 15.628 34.584 14.944 34.584 14.2C34.584 13.432 34.524 12.832 34.404 12.4C34.38 12.352 34.272 12.232 34.08 12.04C34.056 12.04 34.032 12.028 34.008 12.004C34.008 12.004 33.996 12.004 33.972 12.004C33.972 12.004 33.96 12.016 33.936 12.04C33.912 12.04 33.888 12.052 33.864 12.076C33.84 12.076 33.804 12.076 33.756 12.076C33.66 12.124 33.54 12.172 33.396 12.22C33.324 12.244 33.252 12.268 33.18 12.292C33.132 12.316 33.072 12.34 33 12.364C33.024 12.388 33.036 12.424 33.036 12.472C33.036 12.568 32.988 12.616 32.892 12.616C32.796 12.616 32.748 12.58 32.748 12.508C32.484 12.628 32.196 12.784 31.884 12.976C31.86 13.048 31.8 13.084 31.704 13.084C31.68 13.108 31.656 13.12 31.632 13.12C31.632 13.12 31.62 13.132 31.596 13.156C31.524 13.228 31.452 13.276 31.38 13.3C31.308 13.324 31.236 13.36 31.164 13.408C31.164 13.504 31.116 13.552 31.02 13.552C30.924 13.552 30.876 13.504 30.876 13.408C30.876 13.408 30.864 13.408 30.84 13.408C30.816 13.408 30.768 13.42 30.696 13.444C30.672 13.516 30.624 13.552 30.552 13.552C30.504 13.552 30.456 13.516 30.408 13.444C30.384 13.42 30.348 13.384 30.3 13.336C30.252 13.288 30.204 13.24 30.156 13.192C30.156 13.168 30.144 13.156 30.12 13.156C30.12 13.132 30.084 13.084 30.012 13.012C29.964 13.06 29.916 13.084 29.868 13.084C29.772 13.084 29.724 13.036 29.724 12.94C29.724 12.868 29.76 12.82 29.832 12.796C29.832 12.772 29.82 12.76 29.796 12.76C29.796 12.76 29.796 12.748 29.796 12.724C29.748 12.604 29.7 12.448 29.652 12.256C29.652 12.136 29.628 12.028 29.58 11.932C29.556 11.884 29.532 11.836 29.508 11.788C29.484 11.74 29.448 11.692 29.4 11.644L29.292 11.464C29.292 11.464 29.28 11.464 29.256 11.464C29.256 11.44 29.256 11.416 29.256 11.392C29.232 11.368 29.208 11.368 29.184 11.392C29.16 11.368 29.136 11.356 29.112 11.356C29.064 11.356 28.992 11.332 28.896 11.284C28.752 11.236 28.644 11.212 28.572 11.212C28.548 11.212 28.512 11.212 28.464 11.212C28.44 11.212 28.368 11.236 28.248 11.284C28.176 11.308 28.104 11.332 28.032 11.356C27.96 11.356 27.888 11.38 27.816 11.428C27.864 11.476 27.888 11.512 27.888 11.536C27.888 11.632 27.84 11.68 27.744 11.68C27.648 11.68 27.6 11.632 27.6 11.536L27.132 11.896C27.18 11.944 27.204 11.98 27.204 12.004C27.204 12.1 27.156 12.148 27.06 12.148C27.012 12.148 26.964 12.124 26.916 12.076C26.892 12.1 26.832 12.136 26.736 12.184C26.64 12.256 26.556 12.352 26.484 12.472C26.484 12.568 26.436 12.616 26.34 12.616C26.316 12.616 26.292 12.604 26.268 12.58C26.244 12.604 26.22 12.628 26.196 12.652C26.172 12.676 26.148 12.7 26.124 12.724C25.98 12.892 25.86 13.072 25.764 13.264C25.692 13.432 25.608 13.612 25.512 13.804C25.464 13.9 25.44 13.972 25.44 14.02L25.116 14.668C25.116 14.692 25.092 14.752 25.044 14.848L25.26 15.28H24.864C24.696 15.64 24.576 16.024 24.504 16.432V16.612C24.504 16.612 24.504 16.624 24.504 16.648C24.504 16.672 24.492 16.744 24.468 16.864C24.492 16.888 24.516 16.924 24.54 16.972C24.564 17.02 24.6 17.08 24.648 17.152C24.672 17.176 24.708 17.236 24.756 17.332C24.756 17.38 24.792 17.404 24.864 17.404C24.912 17.404 24.936 17.404 24.936 17.404C24.936 17.404 24.948 17.404 24.972 17.404C25.14 17.428 25.284 17.428 25.404 17.404C25.524 17.38 25.668 17.356 25.836 17.332C26.052 17.284 26.28 17.236 26.52 17.188C26.76 17.14 27 17.104 27.24 17.08L27.42 16.72H28.86L28.5 17.404C28.524 17.428 28.548 17.464 28.572 17.512C28.62 17.536 28.668 17.584 28.716 17.656C28.716 17.68 28.716 17.692 28.716 17.692C28.74 17.692 28.752 17.704 28.752 17.728C28.8 17.776 28.824 17.8 28.824 17.8C28.944 17.92 29.016 18.016 29.04 18.088C29.04 18.112 29.052 18.136 29.076 18.16H29.58L29.22 18.952C29.22 19.024 29.16 19.156 29.04 19.348C29.04 19.372 29.028 19.396 29.004 19.42C29.004 19.42 29.004 19.432 29.004 19.456C28.98 19.456 28.968 19.468 28.968 19.492C28.944 19.54 28.92 19.588 28.896 19.636C28.872 19.684 28.848 19.732 28.824 19.78C28.8 19.78 28.788 19.792 28.788 19.816C28.788 19.816 28.776 19.816 28.752 19.816L28.14 21.04L27.6 19.996C27.576 19.972 27.552 19.96 27.528 19.96C27.264 19.84 27.024 19.768 26.808 19.744C26.784 19.744 26.772 19.744 26.772 19.744C26.772 19.72 26.748 19.708 26.7 19.708C26.676 19.708 26.652 19.708 26.628 19.708C26.604 19.684 26.592 19.672 26.592 19.672C26.568 19.696 26.544 19.72 26.52 19.744C26.496 19.744 26.436 19.804 26.34 19.924C26.292 19.924 26.268 19.948 26.268 19.996C26.196 20.044 26.148 20.116 26.124 20.212C26.124 20.236 26.124 20.26 26.124 20.284C26.124 20.284 26.124 20.296 26.124 20.32C26.124 20.344 26.112 20.368 26.088 20.392C26.088 20.416 26.088 20.452 26.088 20.5C26.04 20.644 26.016 20.716 26.016 20.716C26.016 20.716 26.016 20.728 26.016 20.752C26.016 20.752 26.028 20.764 26.052 20.788C26.076 20.812 26.088 20.836 26.088 20.86C26.136 20.956 26.16 21.016 26.16 21.04C26.232 21.184 26.292 21.28 26.34 21.328C26.34 21.328 26.352 21.34 26.376 21.364C26.424 21.364 26.46 21.388 26.484 21.436C26.508 21.436 26.532 21.448 26.556 21.472C26.58 21.472 26.604 21.472 26.628 21.472C26.844 21.616 27.12 21.748 27.456 21.868C27.552 21.892 27.636 21.916 27.708 21.94C27.804 21.964 27.9 21.988 27.996 22.012C28.188 22.084 28.38 22.156 28.572 22.228C28.788 22.276 28.992 22.36 29.184 22.48C29.28 22.528 29.376 22.6 29.472 22.696C29.592 22.768 29.712 22.852 29.832 22.948C30.432 23.428 30.888 23.92 31.2 24.424C31.2 24.4 31.236 24.46 31.308 24.604C31.356 24.676 31.404 24.76 31.452 24.856L31.56 25.216C31.56 25.216 31.56 25.228 31.56 25.252C31.608 25.396 31.632 25.54 31.632 25.684C31.632 25.828 31.632 25.972 31.632 26.116C31.584 26.38 31.596 26.62 31.668 26.836C31.716 27.004 31.788 27.172 31.884 27.34C31.98 27.508 32.088 27.676 32.208 27.844C32.232 27.868 32.268 27.928 32.316 28.024C32.364 28.072 32.412 28.132 32.46 28.204C32.532 28.276 32.592 28.348 32.64 28.42C32.688 28.516 32.736 28.624 32.784 28.744C32.832 28.84 32.88 28.936 32.928 29.032L33.144 29.5C33.144 29.524 33.144 29.548 33.144 29.572C33.168 29.572 33.18 29.584 33.18 29.608L33.252 29.788C33.252 29.788 33.264 29.788 33.288 29.788C33.336 29.788 33.432 29.812 33.576 29.86C33.6 29.86 33.612 29.872 33.612 29.896C33.636 29.896 33.66 29.896 33.684 29.896C33.78 29.944 33.828 29.968 33.828 29.968C33.804 29.968 33.804 29.968 33.828 29.968C33.852 29.968 33.912 29.92 34.008 29.824C34.032 29.8 34.056 29.788 34.08 29.788C34.104 29.764 34.128 29.74 34.152 29.716C34.296 29.644 34.368 29.596 34.368 29.572C34.368 29.572 34.392 29.488 34.44 29.32C34.44 29.248 34.452 29.2 34.476 29.176C34.524 28.96 34.548 28.744 34.548 28.528C34.572 28.288 34.584 28.048 34.584 27.808C34.584 27.616 34.584 27.436 34.584 27.268C34.584 27.076 34.572 26.884 34.548 26.692V26.044C34.548 25.78 34.548 25.216 34.548 24.352C34.548 23.488 34.548 22.576 34.548 21.616C34.548 20.656 34.548 19.756 34.548 18.916C34.572 18.052 34.572 17.488 34.548 17.224C34.548 17.104 34.548 16.96 34.548 16.792C34.572 16.624 34.584 16.444 34.584 16.252ZM8.916 11.356L9.06 11.68L9.24 11.356H8.916ZM9.348 11.356L9.528 11.716L9.708 11.356H9.348ZM9.816 11.356L9.996 11.716L10.176 11.356H9.816ZM10.284 11.356L10.464 11.716L10.644 11.356H10.284ZM10.752 11.356L10.896 11.68L11.076 11.392L10.752 11.356ZM11.256 11.392L11.4 11.68L11.544 11.392H11.256ZM11.724 11.392L11.868 11.68L12.012 11.392H11.724ZM12.192 11.392L12.336 11.68L12.48 11.392H12.192ZM12.948 11.392H12.66L12.804 11.68L12.948 11.392ZM13.128 11.392L13.272 11.68L13.416 11.392H13.128ZM13.596 11.392L13.74 11.68L13.884 11.392H13.596ZM15 11.392L15.144 11.644L15.252 11.392H15ZM15.468 11.392L15.612 11.644L15.756 11.392H15.468ZM15.936 11.392L16.08 11.68L16.224 11.392H15.936ZM26.196 11.536C26.196 11.44 26.244 11.392 26.34 11.392C26.436 11.392 26.484 11.44 26.484 11.536C26.484 11.632 26.436 11.68 26.34 11.68C26.244 11.68 26.196 11.632 26.196 11.536ZM28.212 11.392C28.308 11.392 28.356 11.44 28.356 11.536C28.356 11.632 28.308 11.68 28.212 11.68C28.116 11.68 28.068 11.632 28.068 11.536C28.068 11.44 28.116 11.392 28.212 11.392ZM28.68 11.392C28.776 11.392 28.824 11.44 28.824 11.536C28.824 11.632 28.776 11.68 28.68 11.68C28.584 11.68 28.536 11.632 28.536 11.536C28.536 11.44 28.584 11.392 28.68 11.392ZM29.148 11.392C29.244 11.392 29.292 11.44 29.292 11.536C29.292 11.632 29.244 11.68 29.148 11.68C29.052 11.68 29.004 11.632 29.004 11.536C29.004 11.44 29.052 11.392 29.148 11.392ZM30.084 11.68C29.988 11.68 29.94 11.632 29.94 11.536C29.94 11.44 29.988 11.392 30.084 11.392C30.18 11.392 30.228 11.44 30.228 11.536C30.228 11.632 30.18 11.68 30.084 11.68ZM30.552 11.392C30.648 11.392 30.696 11.44 30.696 11.536C30.696 11.632 30.648 11.68 30.552 11.68C30.456 11.68 30.408 11.632 30.408 11.536C30.408 11.44 30.456 11.392 30.552 11.392ZM31.02 11.392C31.116 11.392 31.164 11.44 31.164 11.536C31.164 11.632 31.116 11.68 31.02 11.68C30.924 11.68 30.876 11.632 30.876 11.536C30.876 11.44 30.924 11.392 31.02 11.392ZM31.488 11.392C31.584 11.392 31.632 11.44 31.632 11.536C31.632 11.632 31.584 11.68 31.488 11.68C31.392 11.68 31.344 11.632 31.344 11.536C31.344 11.44 31.392 11.392 31.488 11.392ZM32.1 11.536C32.1 11.632 32.052 11.68 31.956 11.68C31.86 11.68 31.812 11.632 31.812 11.536C31.812 11.44 31.86 11.392 31.956 11.392C32.052 11.392 32.1 11.44 32.1 11.536ZM32.568 11.536C32.568 11.632 32.52 11.68 32.424 11.68C32.328 11.68 32.28 11.632 32.28 11.536C32.28 11.44 32.328 11.392 32.424 11.392C32.52 11.392 32.568 11.44 32.568 11.536ZM32.892 11.68C32.796 11.68 32.748 11.632 32.748 11.536C32.748 11.44 32.796 11.392 32.892 11.392C32.988 11.392 33.036 11.44 33.036 11.536C33.036 11.632 32.988 11.68 32.892 11.68ZM33.36 11.68C33.264 11.68 33.216 11.632 33.216 11.536C33.216 11.44 33.264 11.392 33.36 11.392C33.456 11.392 33.504 11.44 33.504 11.536C33.504 11.632 33.456 11.68 33.36 11.68ZM9.348 11.824L9.528 12.184L9.708 11.824H9.348ZM9.816 11.824L9.996 12.184L10.176 11.824H9.816ZM10.284 11.824L10.464 12.184L10.644 11.824H10.284ZM10.752 11.824L10.896 12.148L11.076 11.86L10.752 11.824ZM11.256 11.86L11.4 12.148L11.544 11.86H11.256ZM11.724 11.86L11.868 12.148L12.012 11.86H11.724ZM12.192 11.86L12.336 12.148L12.48 11.86H12.192ZM12.66 11.86L12.804 12.148L12.948 11.86H12.66ZM13.128 11.86L13.272 12.148L13.416 11.86H13.128ZM13.596 11.86L13.74 12.148L13.884 11.86H13.596ZM14.172 12.112L14.316 11.896H14.064L14.172 12.112ZM15.72 11.896H15.036L15.252 12.364H15.036L15.144 12.58L15.36 12.148L15.612 12.616L15.756 12.328H15.504L15.72 11.896ZM15.936 11.86L16.08 12.148L16.224 11.86H15.936ZM16.692 11.86H16.404L16.548 12.148L16.692 11.86ZM25.656 12.148C25.56 12.148 25.512 12.1 25.512 12.004C25.512 11.908 25.56 11.86 25.656 11.86C25.752 11.86 25.8 11.908 25.8 12.004C25.8 12.1 25.752 12.148 25.656 12.148ZM29.4 11.86C29.496 11.86 29.544 11.908 29.544 12.004C29.544 12.1 29.496 12.148 29.4 12.148C29.304 12.148 29.256 12.1 29.256 12.004C29.256 11.908 29.304 11.86 29.4 11.86ZM30.336 12.148C30.24 12.148 30.192 12.1 30.192 12.004C30.192 11.908 30.24 11.86 30.336 11.86C30.432 11.86 30.48 11.908 30.48 12.004C30.48 12.1 30.432 12.148 30.336 12.148ZM30.804 12.148C30.708 12.148 30.66 12.1 30.66 12.004C30.66 11.908 30.708 11.86 30.804 11.86C30.9 11.86 30.948 11.908 30.948 12.004C30.948 12.1 30.9 12.148 30.804 12.148ZM31.272 12.148C31.176 12.148 31.128 12.1 31.128 12.004C31.128 11.908 31.176 11.86 31.272 11.86C31.368 11.86 31.416 11.908 31.416 12.004C31.416 12.1 31.368 12.148 31.272 12.148ZM31.74 12.148C31.644 12.148 31.596 12.1 31.596 12.004C31.596 11.908 31.644 11.86 31.74 11.86C31.836 11.86 31.884 11.908 31.884 12.004C31.884 12.1 31.836 12.148 31.74 12.148ZM32.208 12.148C32.112 12.148 32.064 12.1 32.064 12.004C32.064 11.908 32.112 11.86 32.208 11.86C32.304 11.86 32.352 11.908 32.352 12.004C32.352 12.1 32.304 12.148 32.208 12.148ZM9.816 12.292L9.996 12.652L10.176 12.292H9.816ZM10.284 12.292L10.464 12.652L10.644 12.292H10.284ZM10.752 12.292L10.896 12.616L11.076 12.328L10.752 12.292ZM11.256 12.328L11.4 12.616L11.544 12.328H11.256ZM11.724 12.328L11.868 12.616L12.012 12.328H11.724ZM12.192 12.328L12.336 12.616L12.48 12.328H12.192ZM12.66 12.328L12.804 12.616L12.948 12.328H12.66ZM13.128 12.328L13.272 12.616L13.416 12.328H13.128ZM13.596 12.328L13.74 12.616L13.884 12.328H13.596ZM14.172 12.58L14.316 12.364H14.064L14.172 12.58ZM15.936 12.328L16.08 12.616L16.224 12.328H15.936ZM16.404 12.328L16.548 12.616L16.692 12.328H16.404ZM17.16 12.328H16.872L17.016 12.616L17.16 12.328ZM25.404 12.616C25.308 12.616 25.26 12.568 25.26 12.472C25.26 12.376 25.308 12.328 25.404 12.328C25.5 12.328 25.548 12.376 25.548 12.472C25.548 12.568 25.5 12.616 25.404 12.616ZM30.552 12.616C30.456 12.616 30.408 12.568 30.408 12.472C30.408 12.376 30.456 12.328 30.552 12.328C30.648 12.328 30.696 12.376 30.696 12.472C30.696 12.568 30.648 12.616 30.552 12.616ZM31.02 12.616C30.924 12.616 30.876 12.568 30.876 12.472C30.876 12.376 30.924 12.328 31.02 12.328C31.116 12.328 31.164 12.376 31.164 12.472C31.164 12.568 31.116 12.616 31.02 12.616ZM31.488 12.616C31.392 12.616 31.344 12.568 31.344 12.472C31.344 12.376 31.392 12.328 31.488 12.328C31.584 12.328 31.632 12.376 31.632 12.472C31.632 12.568 31.584 12.616 31.488 12.616ZM9.816 12.76L9.996 13.12L10.176 12.76H9.816ZM10.284 12.76L10.464 13.12L10.644 12.76H10.284ZM10.752 12.76L10.896 13.084L11.076 12.796L10.752 12.76ZM11.256 12.796L11.4 13.084L11.544 12.796H11.256ZM11.724 12.796L11.868 13.084L12.012 12.796H11.724ZM12.192 12.796L12.336 13.084L12.48 12.796H12.192ZM12.66 12.796L12.804 13.084L12.948 12.796H12.66ZM13.272 13.084L13.416 12.796H13.128L13.272 13.084ZM13.596 12.796L13.74 13.084L13.884 12.796H13.596ZM14.172 13.048L14.316 12.832H14.064L14.172 13.048ZM15.468 12.796L15.612 13.048L15.72 12.796H15.468ZM15.936 12.796L16.08 13.048L16.188 12.796H15.936ZM16.404 12.796L16.548 13.048L16.692 12.796H16.404ZM16.872 12.796L17.016 13.084L17.16 12.796H16.872ZM25.188 13.084C25.092 13.084 25.044 13.036 25.044 12.94C25.044 12.844 25.092 12.796 25.188 12.796C25.284 12.796 25.332 12.844 25.332 12.94C25.332 13.036 25.284 13.084 25.188 13.084ZM8.412 13.228L8.592 13.588L8.772 13.228H8.412ZM9.24 13.228H8.88L9.06 13.588L9.24 13.228ZM9.708 13.228H9.348L9.528 13.588L9.708 13.228ZM9.816 13.228L9.996 13.588L10.176 13.228H9.816ZM10.284 13.228L10.464 13.588L10.644 13.228H10.284ZM10.896 13.552L11.076 13.264L10.752 13.228L10.896 13.552ZM11.256 13.264L11.4 13.552L11.544 13.264H11.256ZM11.868 13.552L12.012 13.264H11.724L11.868 13.552ZM12.192 13.264L12.336 13.552L12.48 13.264H12.192ZM12.66 13.264L12.804 13.552L12.948 13.264H12.66ZM13.128 13.264L13.272 13.552L13.416 13.264H13.128ZM13.596 13.264L13.74 13.552L13.884 13.264H13.596ZM14.172 13.516L14.316 13.3H14.064L14.172 13.516ZM16.656 13.3H16.404L16.548 13.552L16.656 13.3ZM16.872 13.264L17.016 13.552L17.16 13.264H16.872ZM17.448 13.516L17.592 13.3H17.34L17.448 13.516ZM31.488 13.264C31.584 13.264 31.632 13.312 31.632 13.408C31.632 13.504 31.584 13.552 31.488 13.552C31.392 13.552 31.344 13.504 31.344 13.408C31.344 13.312 31.392 13.264 31.488 13.264ZM8.412 13.696L8.592 14.056L8.772 13.696H8.412ZM8.88 13.696L9.06 14.056L9.24 13.696H8.88ZM9.348 13.696L9.528 14.056L9.708 13.696H9.348ZM9.816 13.696L9.996 14.056L10.176 13.696H9.816ZM10.284 13.696L10.464 14.056L10.644 13.696H10.284ZM10.752 13.696L10.896 14.02L11.076 13.732L10.752 13.696ZM11.256 13.732L11.4 14.02L11.544 13.732H11.256ZM11.724 13.732L11.868 14.02L12.012 13.732H11.724ZM12.192 13.732L12.336 14.02L12.48 13.732H12.192ZM12.66 13.732L12.804 14.02L12.948 13.732H12.66ZM13.128 13.732L13.272 14.02L13.416 13.732H13.128ZM13.596 13.732L13.74 14.02L13.884 13.732H13.596ZM14.064 13.768L14.172 13.984L14.316 13.768H14.064ZM16.188 13.768H15.972L16.08 13.984L16.188 13.768ZM16.404 13.732L16.548 14.02L16.692 13.732H16.404ZM16.872 13.732L17.016 14.02L17.16 13.732H16.872ZM17.448 13.984L17.592 13.768H17.34L17.448 13.984ZM8.412 14.164L8.592 14.524L8.772 14.164H8.412ZM8.88 14.164L9.06 14.524L9.24 14.164H8.88ZM9.348 14.164L9.528 14.524L9.708 14.164H9.348ZM9.816 14.164L9.996 14.524L10.176 14.164H9.816ZM10.284 14.164L10.464 14.524L10.644 14.164H10.284ZM10.752 14.164L10.896 14.488L11.076 14.2L10.752 14.164ZM11.256 14.2L11.4 14.488L11.544 14.2H11.256ZM11.724 14.2L11.868 14.488L12.012 14.2H11.724ZM12.192 14.2L12.336 14.488L12.48 14.2H12.192ZM12.66 14.2L12.804 14.488L12.948 14.2H12.66ZM13.128 14.2L13.272 14.488L13.416 14.2H13.128ZM13.596 14.2L13.74 14.488L13.884 14.2H13.596ZM14.064 14.236L14.172 14.452L14.316 14.236H14.064ZM16.404 14.2L16.548 14.452L16.656 14.2H16.404ZM17.34 14.704L17.592 14.236L17.376 14.2H16.872L17.124 14.704H16.908L17.016 14.92L17.232 14.488L17.448 14.92L17.592 14.704H17.34ZM8.412 14.632L8.592 14.992L8.772 14.632H8.412ZM8.88 14.632L9.06 14.992L9.24 14.632H8.88ZM9.348 14.632L9.528 14.992L9.708 14.632H9.348ZM9.996 14.992L10.176 14.632H9.816L9.996 14.992ZM10.284 14.632L10.464 14.992L10.644 14.632H10.284ZM10.752 14.632L10.896 14.956L11.076 14.668L10.752 14.632ZM11.256 14.668L11.4 14.956L11.544 14.668H11.256ZM11.724 14.668L11.868 14.956L12.012 14.668H11.724ZM12.192 14.668L12.336 14.956L12.48 14.668H12.192ZM12.66 14.668L12.804 14.956L12.948 14.668H12.66ZM13.128 14.668L13.272 14.956L13.416 14.668H13.128ZM13.596 14.668L13.74 14.956L13.884 14.668H13.596ZM14.064 14.704L14.172 14.92L14.316 14.704H14.064ZM8.412 15.1L8.592 15.46L8.772 15.1H8.412ZM8.88 15.1L9.06 15.46L9.24 15.1H8.88ZM9.348 15.1L9.528 15.46L9.708 15.1H9.348ZM9.816 15.1L9.996 15.46L10.176 15.1H9.816ZM10.464 15.46L10.644 15.1H10.284L10.464 15.46ZM12.66 15.136L12.804 15.424L12.948 15.136H12.66ZM13.128 15.136L13.272 15.424L13.416 15.136H13.128ZM13.596 15.136L13.74 15.424L13.884 15.136H13.596ZM14.064 15.172L14.172 15.388L14.316 15.172H14.064ZM16.656 15.604L16.764 15.388L16.98 15.856L17.124 15.604H16.908L17.124 15.172H16.44L16.656 15.604ZM17.448 15.388L17.592 15.172H17.34L17.448 15.388ZM8.412 15.568L8.592 15.928L8.772 15.568H8.412ZM8.88 15.568L9.06 15.928L9.24 15.568H8.88ZM9.348 15.568L9.528 15.928L9.708 15.568H9.348ZM9.816 15.568L9.996 15.928L10.176 15.568H9.816ZM10.284 15.568L10.5 16L10.716 15.568H10.284ZM12.66 15.604L12.804 15.892L12.948 15.604H12.66ZM13.128 15.604L13.272 15.892L13.416 15.604H13.128ZM13.596 15.604L13.74 15.892L13.884 15.604H13.596ZM14.064 15.64L14.172 15.856L14.316 15.64H14.064ZM8.412 16.036L8.592 16.396L8.772 16.036H8.412ZM8.88 16.036L9.06 16.396L9.24 16.036H8.88ZM9.528 16.396L9.708 16.036H9.348L9.528 16.396ZM9.816 16.036L9.996 16.396L10.176 16.036H9.816ZM12.696 16.072L12.804 16.288L12.948 16.072H12.696ZM13.128 16.072L13.272 16.36L13.416 16.072H13.128ZM13.596 16.072L13.74 16.36L13.884 16.072H13.596ZM14.064 16.108L14.172 16.324L14.316 16.108H14.064ZM17.808 16.54L18.024 16.144H17.412L17.592 16.54L17.7 16.324L17.808 16.54ZM8.412 16.504L8.592 16.864L8.772 16.504H8.412ZM8.88 16.504L9.06 16.864L9.24 16.504H8.88ZM9.348 16.504L9.528 16.864L9.708 16.504H9.348ZM13.128 16.54L13.272 16.828L13.416 16.54H13.128ZM13.596 16.54L13.74 16.828L13.884 16.54H13.596ZM14.064 16.576L14.172 16.792L14.316 16.576H14.064ZM8.412 16.972L8.592 17.332L8.772 16.972H8.412ZM8.88 16.972L9.06 17.332L9.24 16.972H8.88ZM9.348 16.972L9.528 17.332L9.708 16.972H9.348ZM16.188 17.944L16.296 17.728L16.548 18.196L16.692 17.944H16.44L16.764 17.296L17.016 17.764L17.232 17.296L17.448 17.728L17.592 17.512H17.34L17.592 17.044H15.972L16.188 17.512H15.972L16.188 17.944ZM25.98 19.636C26.004 19.636 26.016 19.636 26.016 19.636C26.04 19.612 26.052 19.6 26.052 19.6C26.052 19.6 26.076 19.576 26.124 19.528C26.172 19.48 26.232 19.432 26.304 19.384C26.376 19.312 26.424 19.276 26.448 19.276C26.496 19.252 26.544 19.252 26.592 19.276C26.664 19.276 26.736 19.276 26.808 19.276C26.832 19.3 26.856 19.312 26.88 19.312C26.952 19.336 27.024 19.348 27.096 19.348C27.168 19.348 27.24 19.372 27.312 19.42L26.7 18.16L27.024 17.548C26.856 17.572 26.676 17.608 26.484 17.656C26.316 17.68 26.136 17.716 25.944 17.764C25.776 17.788 25.596 17.812 25.404 17.836C25.236 17.86 25.056 17.86 24.864 17.836C24.744 17.836 24.636 17.812 24.54 17.764C24.516 17.764 24.468 17.704 24.396 17.584C24.396 17.56 24.384 17.548 24.36 17.548C24.36 17.5 24.336 17.452 24.288 17.404C24.264 17.38 24.252 17.356 24.252 17.332L23.82 18.16L23.1 19.6H21.66L21.804 19.312H21.516L21.66 19.6L21.588 19.78L20.94 21.04L21.336 21.472C21.432 21.328 21.54 21.184 21.66 21.04C21.804 20.872 21.96 20.716 22.128 20.572C22.272 20.452 22.416 20.332 22.56 20.212C22.704 20.068 22.872 19.924 23.064 19.78C23.16 19.684 23.244 19.624 23.316 19.6C23.508 19.504 23.724 19.444 23.964 19.42C24.228 19.396 24.456 19.384 24.648 19.384C24.504 19.288 24.408 19.216 24.36 19.168C24.336 19.168 24.288 19.144 24.216 19.096C24.144 19.048 24.108 19.012 24.108 18.988C24.108 18.964 24.132 18.916 24.18 18.844C24.252 18.748 24.3 18.688 24.324 18.664C24.348 18.616 24.372 18.568 24.396 18.52C24.42 18.472 24.444 18.436 24.468 18.412C24.516 18.388 24.552 18.388 24.576 18.412C24.624 18.412 24.66 18.4 24.684 18.376C24.756 18.376 24.852 18.364 24.972 18.34C25.116 18.316 25.224 18.316 25.296 18.34C25.416 18.412 25.5 18.532 25.548 18.7C25.524 18.748 25.512 18.832 25.512 18.952C25.512 19.072 25.488 19.156 25.44 19.204C25.416 19.228 25.38 19.24 25.332 19.24C25.308 19.24 25.272 19.252 25.224 19.276C25.2 19.3 25.14 19.324 25.044 19.348C24.972 19.372 24.912 19.384 24.864 19.384C24.984 19.408 25.092 19.444 25.188 19.492C25.284 19.54 25.392 19.588 25.512 19.636C25.656 19.732 25.752 19.792 25.8 19.816L25.98 19.636ZM8.412 17.44L8.592 17.8L8.772 17.44H8.412ZM8.88 17.44L9.06 17.8L9.24 17.44H8.88ZM9.348 17.44L9.528 17.8L9.708 17.44H9.348ZM10.176 17.44H9.816L9.996 17.8L10.176 17.44ZM10.644 17.44H10.284L10.464 17.8L10.644 17.44ZM10.896 17.764L11.076 17.476L10.752 17.44L10.896 17.764ZM11.544 17.476H11.256L11.4 17.764L11.544 17.476ZM12.012 17.476H11.724L11.868 17.764L12.012 17.476ZM28.32 17.836L28.14 18.16H28.572C28.572 18.16 28.524 18.1 28.428 17.98C28.404 17.98 28.368 17.932 28.32 17.836ZM8.412 17.908L8.592 18.268L8.772 17.908H8.412ZM8.88 17.908L9.06 18.268L9.24 17.908H8.88ZM9.348 17.908L9.528 18.268L9.708 17.908H9.348ZM9.816 17.908L9.996 18.268L10.176 17.908H9.816ZM10.284 17.908L10.464 18.268L10.644 17.908H10.284ZM10.896 18.232L11.076 17.944L10.752 17.908L10.896 18.232ZM11.256 17.944L11.4 18.232L11.544 17.944H11.256ZM11.724 17.944L11.868 18.232L12.012 17.944H11.724ZM17.016 18.232L17.16 17.944H16.872L17.016 18.232ZM17.916 18.664L18.06 18.448H17.808L18.06 17.98H17.34L17.556 18.412H17.34L17.484 18.7L17.7 18.232L17.916 18.664ZM8.412 18.376L8.592 18.736L8.772 18.376H8.412ZM8.88 18.376L9.06 18.736L9.24 18.376H8.88ZM9.348 18.376L9.528 18.736L9.708 18.376H9.348ZM9.816 18.376L9.996 18.736L10.176 18.376H9.816ZM10.284 18.376L10.464 18.736L10.644 18.376H10.284ZM10.896 18.7L11.076 18.412L10.752 18.376L10.896 18.7ZM11.256 18.412L11.4 18.7L11.544 18.412H11.256ZM11.724 18.412L11.868 18.7L12.012 18.412H11.724ZM16.872 18.412L17.016 18.7L17.16 18.412H16.872ZM8.412 18.844L8.592 19.204L8.772 18.844H8.412ZM8.88 18.844L9.06 19.204L9.24 18.844H8.88ZM9.348 18.844L9.528 19.204L9.708 18.844H9.348ZM9.816 18.844L9.996 19.204L10.176 18.844H9.816ZM10.284 18.844L10.464 19.204L10.644 18.844H10.284ZM10.896 19.168L11.076 18.88L10.752 18.844L10.896 19.168ZM21.048 18.844L21.228 19.204L21.408 18.844H21.048ZM21.876 18.844H21.516L21.696 19.204L21.876 18.844ZM11.256 18.88L11.4 19.168L11.544 18.88H11.256ZM11.724 18.88L11.868 19.168L12.012 18.88H11.724ZM12.48 18.88H12.192L12.336 19.168L12.48 18.88ZM12.948 18.88H12.66L12.804 19.168L12.948 18.88ZM13.416 18.88H13.128L13.272 19.168L13.416 18.88ZM16.872 18.88L17.016 19.168L17.16 18.88H16.872ZM17.484 19.168L17.628 18.88H17.34L17.484 19.168ZM18.168 19.168L18.384 19.6L18.528 19.384H18.276L18.528 18.916H17.808L18.024 19.348H17.808L17.952 19.636L18.168 19.168ZM8.412 19.312L8.592 19.672L8.772 19.312H8.412ZM8.88 19.312L9.06 19.672L9.24 19.312H8.88ZM9.348 19.312L9.528 19.672L9.708 19.312H9.348ZM9.816 19.312L9.996 19.672L10.176 19.312H9.816ZM10.284 19.312L10.464 19.672L10.644 19.312H10.284ZM10.896 19.636L11.076 19.348L10.752 19.312L10.896 19.636ZM21.048 19.312L21.264 19.6L21.408 19.312H21.048ZM11.256 19.348L11.4 19.636L11.544 19.348H11.256ZM11.724 19.348L11.868 19.636L12.012 19.348H11.724ZM12.192 19.348L12.336 19.636L12.48 19.348H12.192ZM12.66 19.348L12.804 19.636L12.948 19.348H12.66ZM13.128 19.348L13.272 19.636L13.416 19.348H13.128ZM13.884 19.348H13.596L13.74 19.636L13.884 19.348ZM17.34 19.348L17.484 19.636L17.628 19.348H17.34ZM8.412 19.78L8.592 20.14L8.772 19.78H8.412ZM8.88 19.78L9.06 20.14L9.24 19.78H8.88ZM9.348 19.78L9.528 20.14L9.708 19.78H9.348ZM9.816 19.78L9.996 20.14L10.176 19.78H9.816ZM10.284 19.78L10.464 20.14L10.644 19.78H10.284ZM10.896 20.104L11.076 19.816L10.752 19.78L10.896 20.104ZM11.256 19.816L11.4 20.104L11.544 19.816H11.256ZM11.724 19.816L11.868 20.104L12.012 19.816H11.724ZM12.192 19.816L12.336 20.104L12.48 19.816H12.192ZM12.66 19.816L12.804 20.104L12.948 19.816H12.66ZM13.128 19.816L13.272 20.104L13.416 19.816H13.128ZM13.596 19.816L13.74 20.104L13.884 19.816H13.596ZM25.368 21.976C25.368 21.928 25.368 21.868 25.368 21.796C25.368 21.724 25.356 21.652 25.332 21.58C25.332 21.436 25.332 21.292 25.332 21.148C25.332 20.98 25.344 20.812 25.368 20.644V20.356C25.368 20.308 25.38 20.224 25.404 20.104C25.38 20.08 25.356 20.068 25.332 20.068C25.308 20.044 25.284 20.032 25.26 20.032C25.02 19.888 24.816 19.816 24.648 19.816C24.456 19.816 24.252 19.828 24.036 19.852C23.844 19.876 23.664 19.924 23.496 19.996C23.448 19.996 23.388 20.032 23.316 20.104C23.316 20.152 23.28 20.176 23.208 20.176C23.088 20.272 22.956 20.392 22.812 20.536C22.692 20.656 22.536 20.788 22.344 20.932C22.2 21.028 22.08 21.148 21.984 21.292C21.888 21.436 21.78 21.58 21.66 21.724C21.564 21.868 21.492 21.964 21.444 22.012L21.66 22.48H21.048L20.724 22.768C20.604 22.888 20.484 23.02 20.364 23.164C20.244 23.284 20.124 23.416 20.004 23.56C19.884 23.704 19.752 23.944 19.608 24.28C19.608 24.28 19.608 24.292 19.608 24.316C19.608 24.316 19.596 24.328 19.572 24.352C19.548 24.424 19.536 24.472 19.536 24.496C19.536 24.496 19.536 24.484 19.536 24.46C19.536 24.46 19.548 24.496 19.572 24.568C19.62 24.616 19.644 24.64 19.644 24.64C19.644 24.712 19.656 24.76 19.68 24.784C19.704 24.88 19.716 24.94 19.716 24.964C19.74 24.964 19.752 24.964 19.752 24.964C19.728 24.964 19.728 24.976 19.752 25C19.776 25 19.824 25.012 19.896 25.036C19.968 25.036 20.016 25.048 20.04 25.072C20.208 25.12 20.364 25.168 20.508 25.216C20.676 25.264 20.844 25.312 21.012 25.36C21.156 25.432 21.288 25.564 21.408 25.756C21.408 25.804 21.42 25.84 21.444 25.864C21.564 25.984 21.6 26.104 21.552 26.224C21.48 26.32 21.396 26.368 21.3 26.368C21.228 26.392 21.156 26.416 21.084 26.44C21.012 26.44 20.94 26.452 20.868 26.476L20.148 26.584C20.124 26.584 20.1 26.584 20.076 26.584C20.076 26.584 20.064 26.584 20.04 26.584C20.016 26.608 19.98 26.62 19.932 26.62C19.908 26.62 19.896 26.62 19.896 26.62C19.896 26.62 19.86 26.668 19.788 26.764C19.788 26.812 19.764 26.86 19.716 26.908C19.716 26.908 19.716 26.92 19.716 26.944C19.716 26.944 19.704 26.956 19.68 26.98C19.632 27.028 19.608 27.052 19.608 27.052C19.632 27.052 19.644 27.064 19.644 27.088C19.692 27.136 19.716 27.16 19.716 27.16C19.716 27.16 19.74 27.208 19.788 27.304C19.836 27.376 19.884 27.436 19.932 27.484C19.956 27.508 20.052 27.544 20.22 27.592C20.316 27.592 20.376 27.604 20.4 27.628C20.496 27.652 20.592 27.676 20.688 27.7C20.808 27.7 20.952 27.7 21.12 27.7C22.104 27.772 22.848 27.616 23.352 27.232C23.616 26.968 23.82 26.656 23.964 26.296C24.132 25.936 24.288 25.576 24.432 25.216C24.48 25.096 24.54 24.976 24.612 24.856C24.684 24.712 24.744 24.568 24.792 24.424C24.912 24.208 25.02 23.992 25.116 23.776C25.212 23.56 25.284 23.332 25.332 23.092C25.38 22.9 25.404 22.72 25.404 22.552C25.404 22.36 25.392 22.168 25.368 21.976ZM8.412 20.248L8.592 20.608L8.772 20.248H8.412ZM8.88 20.248L9.06 20.608L9.24 20.248H8.88ZM9.348 20.248L9.528 20.608L9.708 20.248H9.348ZM9.816 20.248L9.996 20.608L10.176 20.248H9.816ZM10.284 20.248L10.464 20.608L10.644 20.248H10.284ZM10.896 20.572L11.076 20.284L10.752 20.248L10.896 20.572ZM11.256 20.284L11.4 20.572L11.544 20.284H11.256ZM11.724 20.284L11.868 20.572L12.012 20.284H11.724ZM12.192 20.284L12.336 20.572L12.48 20.284H12.192ZM12.66 20.284L12.804 20.572L12.948 20.284H12.66ZM13.128 20.284L13.272 20.572L13.416 20.284H13.128ZM13.596 20.284L13.74 20.572L13.884 20.284H13.596ZM14.172 20.536L14.316 20.32H14.064L14.172 20.536ZM8.412 20.716L8.592 21.076L8.772 20.716H8.412ZM8.88 20.716L9.06 21.076L9.24 20.716H8.88ZM9.348 20.716L9.528 21.076L9.708 20.716H9.348ZM9.816 20.716L9.996 21.076L10.176 20.716H9.816ZM10.284 20.716L10.464 21.076L10.644 20.716H10.284ZM10.752 20.716L10.896 21.04L11.076 20.752L10.752 20.716ZM11.256 20.752L11.4 21.04L11.544 20.752H11.256ZM11.724 20.752L11.868 21.04L12.012 20.752H11.724ZM12.192 20.752L12.336 21.04L12.48 20.752H12.192ZM12.66 20.752L12.804 21.04L12.948 20.752H12.66ZM13.128 20.752L13.272 21.04L13.416 20.752H13.128ZM13.596 20.752L13.74 21.04L13.884 20.752H13.596ZM14.172 21.004L14.316 20.788H14.064L14.172 21.004ZM8.412 21.184L8.592 21.544L8.772 21.184H8.412ZM8.88 21.184L9.06 21.544L9.24 21.184H8.88ZM9.348 21.184L9.528 21.544L9.708 21.184H9.348ZM9.816 21.184L9.996 21.544L10.176 21.184H9.816ZM10.284 21.184L10.464 21.544L10.644 21.184H10.284ZM10.752 21.184L10.896 21.508L11.076 21.22L10.752 21.184ZM11.4 21.508L11.544 21.22H11.256L11.4 21.508ZM11.724 21.22L11.868 21.508L12.012 21.22H11.724ZM12.192 21.22L12.336 21.508L12.48 21.22H12.192ZM12.804 21.508L12.948 21.22H12.66L12.804 21.508ZM13.128 21.22L13.272 21.508L13.416 21.22H13.128ZM13.74 21.508L13.884 21.22H13.596L13.74 21.508ZM14.172 21.472L14.316 21.256H14.064L14.172 21.472ZM8.412 21.652L8.592 22.012L8.772 21.652H8.412ZM8.88 21.652L9.06 22.012L9.24 21.652H8.88ZM9.348 21.652L9.528 22.012L9.708 21.652H9.348ZM9.816 21.652L9.996 22.012L10.176 21.652H9.816ZM10.284 21.652L10.464 22.012L10.644 21.652H10.284ZM10.752 21.652L10.896 21.976L11.076 21.688L10.752 21.652ZM11.256 21.688L11.4 21.976L11.544 21.688H11.256ZM11.868 21.976L12.012 21.688H11.724L11.868 21.976ZM12.192 21.688L12.336 21.976L12.48 21.688H12.192ZM12.66 21.688L12.804 21.976L12.948 21.688H12.66ZM13.272 21.976L13.416 21.688H13.128L13.272 21.976ZM13.596 21.688L13.74 21.976L13.884 21.688H13.596ZM14.064 21.724L14.172 21.94L14.316 21.724H14.064ZM8.412 22.12L8.592 22.48L8.772 22.12H8.412ZM8.88 22.12L9.06 22.48L9.24 22.12H8.88ZM9.348 22.12L9.528 22.48L9.708 22.12H9.348ZM9.816 22.12L9.996 22.48L10.176 22.12H9.816ZM10.284 22.12L10.464 22.48L10.644 22.12H10.284ZM10.752 22.12L10.896 22.444L11.076 22.156L10.752 22.12ZM11.256 22.156L11.4 22.444L11.544 22.156H11.256ZM11.724 22.156L11.868 22.444L12.012 22.156H11.724ZM12.336 22.444L12.48 22.156H12.192L12.336 22.444ZM12.66 22.156L12.804 22.444L12.948 22.156H12.66ZM13.128 22.156L13.272 22.444L13.416 22.156H13.128ZM13.74 22.444L13.884 22.156H13.596L13.74 22.444ZM14.064 22.192L14.172 22.408L14.316 22.192H14.064ZM32.028 32.812C32.388 32.332 32.592 31.78 32.64 31.156C32.64 30.988 32.628 30.832 32.604 30.688C32.604 30.52 32.592 30.352 32.568 30.184C32.544 30.112 32.532 30.004 32.532 29.86C32.508 29.812 32.496 29.74 32.496 29.644C32.472 29.524 32.46 29.404 32.46 29.284C32.46 29.164 32.436 29.056 32.388 28.96C32.364 28.84 32.316 28.732 32.244 28.636C32.172 28.54 32.112 28.444 32.064 28.348L31.884 28.132C31.788 28.012 31.68 27.892 31.56 27.772C31.464 27.628 31.392 27.484 31.344 27.34C31.248 27.124 31.188 26.908 31.164 26.692C31.164 26.476 31.164 26.272 31.164 26.08C31.164 25.96 31.164 25.84 31.164 25.72C31.164 25.6 31.152 25.48 31.128 25.36C31.128 25.312 31.104 25.24 31.056 25.144C31.056 25.144 31.032 25.096 30.984 25C30.984 24.976 30.972 24.964 30.948 24.964C30.948 24.94 30.948 24.916 30.948 24.892C30.9 24.772 30.864 24.712 30.84 24.712C30.84 24.664 30.804 24.628 30.732 24.604C30.708 24.604 30.672 24.58 30.624 24.532C30.6 24.532 30.564 24.508 30.516 24.46C30.468 24.412 30.396 24.364 30.3 24.316C30.204 24.268 30.108 24.232 30.012 24.208C29.916 24.16 29.808 24.124 29.688 24.1C29.568 24.052 29.436 24.016 29.292 23.992C29.148 23.944 29.004 23.884 28.86 23.812C28.716 23.716 28.584 23.608 28.464 23.488C28.368 23.368 28.26 23.248 28.14 23.128C28.044 23.008 27.936 22.9 27.816 22.804C27.72 22.684 27.576 22.564 27.384 22.444C27.24 22.372 27.168 22.336 27.168 22.336C27.168 22.336 27.156 22.336 27.132 22.336C27.132 22.336 27.108 22.348 27.06 22.372C27.036 22.372 27.012 22.384 26.988 22.408C26.988 22.408 26.976 22.408 26.952 22.408C26.928 22.408 26.904 22.42 26.88 22.444C26.88 22.444 26.868 22.444 26.844 22.444C26.796 22.444 26.748 22.48 26.7 22.552C26.676 22.648 26.652 22.744 26.628 22.84C26.628 22.912 26.616 23.008 26.592 23.128C26.664 23.68 26.712 24.352 26.736 25.144C26.784 25.912 26.796 26.572 26.772 27.124C26.748 27.316 26.724 27.52 26.7 27.736C26.7 27.928 26.7 28.12 26.7 28.312C26.628 28.984 26.592 29.656 26.592 30.328V30.76C26.592 31.096 26.604 31.444 26.628 31.804C26.652 32.14 26.724 32.464 26.844 32.776C26.844 32.8 26.844 32.824 26.844 32.848C26.868 32.848 26.88 32.872 26.88 32.92C26.928 33.016 27.012 33.136 27.132 33.28C27.156 33.304 27.18 33.328 27.204 33.352C27.228 33.352 27.276 33.388 27.348 33.46C27.42 33.532 27.48 33.568 27.528 33.568C27.552 33.592 27.66 33.616 27.852 33.64C28.236 33.736 28.668 33.784 29.148 33.784C29.436 33.784 29.724 33.784 30.012 33.784C30.324 33.76 30.648 33.712 30.984 33.64C31.104 33.64 31.176 33.628 31.2 33.604C31.224 33.58 31.248 33.556 31.272 33.532C31.32 33.508 31.392 33.46 31.488 33.388C31.512 33.388 31.548 33.364 31.596 33.316C31.692 33.268 31.752 33.232 31.776 33.208C31.824 33.16 31.86 33.124 31.884 33.1C31.908 33.052 31.932 33.004 31.956 32.956C31.98 32.932 31.992 32.908 31.992 32.884C31.992 32.86 32.004 32.836 32.028 32.812ZM28.14 22.516L28.464 22.84C28.56 22.936 28.656 23.044 28.752 23.164C28.872 23.26 28.992 23.344 29.112 23.416C29.208 23.488 29.316 23.548 29.436 23.596C29.556 23.62 29.676 23.656 29.796 23.704C29.892 23.704 29.988 23.728 30.084 23.776C30.012 23.68 29.928 23.596 29.832 23.524C29.76 23.452 29.676 23.38 29.58 23.308C29.484 23.212 29.376 23.128 29.256 23.056C29.16 22.96 29.064 22.888 28.968 22.84C28.728 22.696 28.452 22.588 28.14 22.516ZM8.412 22.588L8.592 22.948L8.772 22.588H8.412ZM8.88 22.588L9.06 22.948L9.24 22.588H8.88ZM9.348 22.588L9.528 22.948L9.708 22.588H9.348ZM9.816 22.588L9.996 22.948L10.176 22.588H9.816ZM10.284 22.588L10.464 22.948L10.644 22.588H10.284ZM10.752 22.588L10.896 22.912L11.076 22.624L10.752 22.588ZM11.256 22.624L11.4 22.912L11.544 22.624H11.256ZM11.724 22.624L11.868 22.912L12.012 22.624H11.724ZM12.192 22.624L12.336 22.912L12.48 22.624H12.192ZM12.804 22.912L12.948 22.624H12.66L12.804 22.912ZM13.128 22.624L13.272 22.912L13.416 22.624H13.128ZM13.596 22.624L13.74 22.912L13.884 22.624H13.596ZM8.412 23.056L8.592 23.416L8.772 23.056H8.412ZM8.88 23.056L9.06 23.416L9.24 23.056H8.88ZM9.348 23.056L9.528 23.416L9.708 23.056H9.348ZM9.816 23.056L9.996 23.416L10.176 23.056H9.816ZM10.284 23.056L10.464 23.416L10.644 23.056H10.284ZM10.752 23.056L10.896 23.38L11.076 23.092L10.752 23.056ZM11.4 23.38L11.544 23.092H11.256L11.4 23.38ZM11.724 23.092L11.868 23.38L12.012 23.092H11.724ZM12.192 23.092L12.336 23.38L12.48 23.092H12.192ZM12.66 23.092L12.804 23.38L12.948 23.092H12.66ZM13.272 23.38L13.416 23.092H13.128L13.272 23.38ZM13.596 23.092L13.74 23.38L13.884 23.092H13.596ZM8.412 23.524L8.592 23.884L8.772 23.524H8.412ZM8.88 23.524L9.06 23.884L9.24 23.524H8.88ZM9.348 23.524L9.528 23.884L9.708 23.524H9.348ZM9.816 23.524L9.996 23.884L10.176 23.524H9.816ZM10.284 23.524L10.464 23.884L10.644 23.524H10.284ZM10.752 23.524L10.896 23.848L11.076 23.56L10.752 23.524ZM11.256 23.56L11.4 23.848L11.544 23.56H11.256ZM11.868 23.848L12.012 23.56H11.724L11.868 23.848ZM12.192 23.56L12.336 23.848L12.48 23.56H12.192ZM12.66 23.56L12.804 23.848L12.948 23.56H12.66ZM13.128 23.56L13.272 23.848L13.416 23.56H13.128ZM8.412 23.992L8.592 24.352L8.772 23.992H8.412ZM8.88 23.992L9.06 24.352L9.24 23.992H8.88ZM9.348 23.992L9.528 24.352L9.708 23.992H9.348ZM9.816 23.992L9.996 24.352L10.176 23.992H9.816ZM10.284 23.992L10.464 24.352L10.644 23.992H10.284ZM10.752 23.992L10.896 24.316L11.076 24.028L10.752 23.992ZM11.256 24.028L11.4 24.316L11.544 24.028H11.256ZM11.724 24.028L11.868 24.316L12.012 24.028H11.724ZM12.336 24.316L12.48 24.028H12.192L12.336 24.316ZM12.66 24.028L12.804 24.316L12.948 24.028H12.66ZM13.128 24.028L13.272 24.316L13.416 24.028H13.128ZM8.412 24.46L8.592 24.82L8.772 24.46H8.412ZM8.88 24.46L9.06 24.82L9.24 24.46H8.88ZM9.348 24.46L9.528 24.82L9.708 24.46H9.348ZM9.816 24.46L9.996 24.82L10.176 24.46H9.816ZM10.284 24.46L10.464 24.82L10.644 24.46H10.284ZM10.752 24.46L10.896 24.784L11.076 24.496L10.752 24.46ZM11.256 24.496L11.4 24.784L11.544 24.496H11.256ZM11.724 24.496L11.868 24.784L12.012 24.496H11.724ZM12.192 24.496L12.336 24.784L12.48 24.496H12.192ZM12.804 24.784L12.948 24.496H12.66L12.804 24.784ZM13.128 24.496L13.272 24.784L13.416 24.496H13.128ZM13.884 24.496H13.596L13.74 24.784L13.884 24.496ZM14.172 24.748L14.316 24.532H14.064L14.172 24.748ZM8.412 24.928L8.592 25.288L8.772 24.928H8.412ZM8.88 24.928L9.06 25.288L9.24 24.928H8.88ZM9.348 24.928L9.528 25.288L9.708 24.928H9.348ZM9.816 24.928L9.996 25.288L10.176 24.928H9.816ZM10.284 24.928L10.464 25.288L10.644 24.928H10.284ZM10.752 24.928L10.896 25.252L11.076 24.964L10.752 24.928ZM11.256 24.964L11.4 25.252L11.544 24.964H11.256ZM11.724 24.964L11.868 25.252L12.012 24.964H11.724ZM12.336 25.252L12.48 24.964H12.192L12.336 25.252ZM12.66 24.964L12.804 25.252L12.948 24.964H12.66ZM13.128 24.964L13.272 25.252L13.416 24.964H13.128ZM13.596 24.964L13.74 25.252L13.884 24.964H13.596ZM14.064 25L14.172 25.216L14.316 25H14.064ZM11.724 25.432L11.868 25.72L12.012 25.432H11.724ZM12.192 25.432L12.336 25.72L12.48 25.432H12.192ZM11.724 25.9L11.868 26.188L12.012 25.9H11.724ZM12.192 25.9L12.336 26.188L12.48 25.9H12.192ZM11.724 26.368L11.868 26.656L12.012 26.368H11.724ZM12.192 26.368L12.336 26.656L12.48 26.368H12.192ZM12.948 26.368H12.66L12.804 26.656L12.948 26.368ZM12.66 26.836L12.804 27.124L12.948 26.836H12.66ZM14.064 26.872L14.172 27.088L14.316 26.872H14.064ZM12.66 27.304L12.804 27.592L12.948 27.304H12.66ZM13.416 27.304H13.128L13.272 27.592L13.416 27.304ZM13.884 27.304H13.596L13.74 27.592L13.884 27.304ZM14.172 27.556L14.316 27.34H14.064L14.172 27.556ZM13.128 27.772L13.272 28.06L13.416 27.772H13.128ZM13.596 27.772L13.74 28.06L13.884 27.772H13.596ZM14.064 27.808L14.172 28.024L14.316 27.808H14.064ZM15.144 23.992H14.928V21.04H15.144V23.992ZM15.144 20.104H14.928V18.592H15.144V20.104ZM15.684 24.28H15.468V18.448H15.684V24.28ZM16.224 24.496H16.008V18.592H16.224V24.496ZM16.764 24.712H16.548V19.024H16.764V24.712ZM17.304 25H17.088V20.248H17.304V25ZM17.844 25.432H17.628V20.824H17.844V25.432ZM18.384 25.792H18.168V21.112H18.384V25.792ZM18.924 26.008H18.708V21.328H18.924V26.008ZM19.464 25.648H19.248V21.688H19.464V25.648ZM15.504 33.568H9.24V33.352H15.504V33.568ZM16.008 33.028H8.592V32.812H16.008V33.028ZM16.224 32.488H8.304V32.272H16.224V32.488ZM16.296 31.948H8.16V31.732H16.296V31.948ZM16.368 31.408H8.016V31.192H16.368V31.408ZM16.368 30.868H8.016V30.652H16.368V30.868ZM16.368 30.328H8.016V30.112H16.368V30.328ZM16.368 29.788H8.016V29.572H16.368V29.788ZM16.368 29.248H8.016V29.032H16.368V29.248ZM16.368 28.708H8.016V28.492H16.368V28.708ZM16.368 28.168H8.016V27.952H16.368V28.168ZM12.768 27.628H8.088V27.412H12.768V27.628ZM16.296 27.628H14.496V27.412H16.296V27.628ZM12.048 27.088H8.232V26.872H12.048V27.088ZM16.224 27.088H14.856V26.872H16.224V27.088ZM11.4 26.548H8.448V26.332H11.4V26.548ZM15.936 26.548H15.144V26.332H15.936V26.548ZM10.752 26.008H8.952V25.792H10.752V26.008Z" fill="#BEFC65"/>
</svg>
